<?xml version="1.0" encoding="utf-8"?>
<!-- Generator: Adobe Illustrator 22.0.1, SVG Export Plug-In . SVG Version: 6.00 Build 0)  -->
<svg version="1.1" id="Layer_1" xmlns="http://www.w3.org/2000/svg" xmlns:xlink="http://www.w3.org/1999/xlink" x="0px" y="0px"
	 viewBox="0 0 480 480" style="enable-background:new 0 0 480 480;" xml:space="preserve">
<style type="text/css">
	.st0{fill:#F58023;}
	.st1{fill:none;}
</style>
<path class="st0" d="M275,440h-70c-5.5,0-10-4.5-10-10V325.2c0-3.1,1.5-6.1,4-8c2.5-1.9,5.7-2.5,8.7-1.7c10.5,2.9,21.3,4.4,32.3,4.4
	c11,0,21.8-1.5,32.3-4.4c3-0.8,6.2-0.2,8.7,1.7c2.5,1.9,4,4.8,4,8V430C285,435.5,280.5,440,275,440 M215,420h50v-82.2
	c-16.4,3-33.6,3-50,0V420z"/>
<path class="st0" d="M370,170c-5.5,0-10-4.5-10-10V20H120v140c0,5.5-4.5,10-10,10c-5.5,0-10-4.5-10-10V10c0-5.5,4.5-10,10-10h260
	c5.5,0,10,4.5,10,10v150C380,165.5,375.5,170,370,170"/>
<path class="st0" d="M113.5,260.1c-0.7-1.4-1-2.9-1-4.3c0-3.7,2.1-7.3,5.7-9c5-2.4,10.9-0.3,13.3,4.7c0.7,1.4,1,2.9,1,4.3
	c0,3.7-2.1,7.3-5.7,9c-1.4,0.7-2.9,1-4.3,1C118.8,265.8,115.2,263.7,113.5,260.1 M100.3,209.5c-0.4-5.5,3.8-10.3,9.3-10.6
	c5.5-0.4,10.3,3.8,10.7,9.3c0.4,5.5-3.8,10.3-9.3,10.7c-0.2,0-0.5,0-0.7,0C105.1,218.8,100.7,214.8,100.3,209.5"/>
<path class="st0" d="M240,340c-12.8,0-25.5-1.7-37.7-5.1c-9.7-2.7-19.1-6.5-28-11.2c-8.8-4.7-17-10.3-24.6-16.7
	c-7.6-6.4-14.5-13.6-20.5-21.4c-6.1-7.9-11.3-16.4-15.6-25.4l0,0c-1.1-2.4-1.3-5.1-0.4-7.6c0.9-2.5,2.7-4.5,5.1-5.7
	c1.4-0.6,2.8-1,4.3-1c3.8,0,7.4,2.2,9,5.7c14.9,31.4,42.7,54.8,76.1,64.1c10.5,2.9,21.3,4.4,32.3,4.4s21.8-1.5,32.3-4.4
	c33.4-9.3,61.1-32.6,76.1-64c1.6-3.5,5.2-5.7,9-5.7c1.5,0,2.9,0.3,4.3,1c5,2.4,7.1,8.3,4.7,13.3c-4.3,9-9.5,17.5-15.6,25.4
	c-6,7.8-12.9,15-20.5,21.4c-7.6,6.4-15.9,12-24.6,16.7c-8.9,4.7-18.3,8.5-28,11.2C265.5,338.3,252.8,340,240,340 M369.7,218.9
	L369.7,218.9L369.7,218.9c-0.2,0-0.5,0-0.7,0c-5.5-0.4-9.7-5.2-9.3-10.7c0.4-5.2,4.7-9.3,10-9.3c0.2,0,0.5,0,0.7,0
	c5.5,0.4,9.7,5.2,9.3,10.7c0,0,0,0,0,0C379.3,214.8,374.9,218.9,369.7,218.9 M370,170.1c-5.5,0-10-4.5-10-10V160c0-5.5,4.5-10,10-10
	c5.5,0,10,4.5,10,10v0.1C380,165.6,375.5,170.1,370,170.1"/>
<path class="st0" d="M320,480H160c-5.5,0-10-4.5-10-10v-40c0-5.5,4.5-10,10-10h160c5.5,0,10,4.5,10,10v40
	C330,475.5,325.5,480,320,480 M170,460h140v-20H170V460z"/>
<path class="st0" d="M370,210c-5.5,0-10-4.5-10-10V60c0-5.5,4.5-10,10-10h100c5.5,0,10,4.5,10,10v40C480,160.7,430.7,210,370,210
	 M380,70v119.4c44.9-5,80-43.2,80-89.4V70H380z"/>
<path class="st0" d="M110,210C49.3,210,0,160.7,0,100V60c0-5.5,4.5-10,10-10h100c5.5,0,10,4.5,10,10v140
	C120,205.5,115.5,210,110,210 M20,70v30c0,46.2,35.1,84.5,80,89.4V70H20z"/>
<path class="st0" d="M294.6,240c-1.6,0-3.2-0.4-4.7-1.1l-50.9-26.8l-50.9,26.8c-3.4,1.8-7.5,1.5-10.5-0.8c-3.1-2.2-4.6-6-4-9.8
	l9.7-56.7l-41.2-40.1c-2.7-2.7-3.7-6.6-2.5-10.3s4.3-6.3,8.1-6.8l56.9-8.3l25.4-51.6c1.7-3.4,5.2-5.6,9-5.6c3.8,0,7.3,2.2,9,5.6
	l25.4,51.6l56.9,8.3c3.8,0.5,6.9,3.2,8.1,6.8c1.2,3.6,0.2,7.6-2.5,10.3l-41.2,40.1l9.7,56.7c0.6,3.8-0.9,7.5-4,9.8
	C298.8,239.4,296.7,240,294.6,240 M170.7,131.3l30.4,29.7c2.4,2.3,3.4,5.6,2.9,8.9l-7.2,41.9l37.6-19.8c2.9-1.5,6.4-1.5,9.3,0
	l37.6,19.8l-7.2-41.9c-0.6-3.2,0.5-6.6,2.9-8.9l30.4-29.7l-42.1-6.1c-3.3-0.5-6.1-2.5-7.5-5.5l-18.8-38.1l-18.8,38.1
	c-1.5,3-4.3,5-7.5,5.5L170.7,131.3z"/>
<rect class="st1" width="480" height="480"/>
</svg>
