<?xml version="1.0" encoding="utf-8"?>
<!-- Generator: Adobe Illustrator 22.0.1, SVG Export Plug-In . SVG Version: 6.00 Build 0)  -->
<svg version="1.1" id="Layer_1" xmlns="http://www.w3.org/2000/svg" xmlns:xlink="http://www.w3.org/1999/xlink" x="0px" y="0px"
	 viewBox="0 0 32 32" style="enable-background:new 0 0 32 32;" xml:space="preserve">
<style type="text/css">
	.st0{fill:#F58023;}
	.st1{fill:none;}
</style>
<path class="st0" d="M17.5,32h-3c-1.4,0-2.5-1.1-2.5-2.5v-7c0-0.3-0.2-0.5-0.5-0.5C10.1,22,9,20.9,9,19.5V12c0-1.7,1.3-3,3-3h8
	c1.7,0,3,1.3,3,3v7.5c0,1.4-1.1,2.5-2.5,2.5c-0.3,0-0.5,0.2-0.5,0.5v7C20,30.9,18.9,32,17.5,32 M12,11c-0.6,0-1,0.5-1,1v7.5
	c0,0.3,0.2,0.5,0.5,0.5c1.4,0,2.5,1.1,2.5,2.5v7c0,0.3,0.2,0.5,0.5,0.5h3c0.3,0,0.5-0.2,0.5-0.5v-7c0-1.4,1.1-2.5,2.5-2.5
	c0.3,0,0.5-0.2,0.5-0.5V12c0-0.6-0.4-1-1-1H12z"/>
<path class="st0" d="M16,8c-2.2,0-4-1.8-4-4s1.8-4,4-4s4,1.8,4,4S18.2,8,16,8 M16,2c-1.1,0-2,0.9-2,2c0,1.1,0.9,2,2,2
	c1.1,0,2-0.9,2-2C18,2.9,17.1,2,16,2"/>
<path class="st0" d="M26.5,32H23c-0.6,0-1-0.4-1-1s0.4-1,1-1h3.5c0.3,0,0.5-0.2,0.5-0.5v-6c0-1.4,1.1-2.5,2.5-2.5
	c0.3,0,0.5-0.2,0.5-0.5V13c0-0.6-0.4-1-1-1h-3c-0.6,0-1-0.4-1-1s0.4-1,1-1h3c1.7,0,3,1.3,3,3v7.5c0,1.4-1.1,2.5-2.5,2.5
	c-0.3,0-0.5,0.2-0.5,0.5v6C29,30.9,27.9,32,26.5,32"/>
<path class="st0" d="M9,32H5.5C4.1,32,3,30.9,3,29.5v-6C3,23.2,2.8,23,2.5,23C1.1,23,0,21.9,0,20.5V13c0-1.7,1.3-3,3-3h3
	c0.6,0,1,0.4,1,1s-0.4,1-1,1H3c-0.6,0-1,0.5-1,1v7.5C2,20.8,2.2,21,2.5,21C3.9,21,5,22.1,5,23.5v6C5,29.8,5.2,30,5.5,30H9
	c0.6,0,1,0.4,1,1S9.6,32,9,32"/>
<path class="st0" d="M26,9c-2.2,0-4-1.8-4-4s1.8-4,4-4s4,1.8,4,4S28.2,9,26,9 M26,3c-1.1,0-2,0.9-2,2c0,1.1,0.9,2,2,2
	c1.1,0,2-0.9,2-2C28,3.9,27.1,3,26,3"/>
<path class="st0" d="M6,9C3.8,9,2,7.2,2,5s1.8-4,4-4s4,1.8,4,4S8.2,9,6,9 M6,3C4.9,3,4,3.9,4,5c0,1.1,0.9,2,2,2s2-0.9,2-2
	C8,3.9,7.1,3,6,3"/>
<rect class="st1" width="32" height="32"/>
</svg>
