<?xml version="1.0" encoding="utf-8"?>
<!-- Generator: Adobe Illustrator 22.0.1, SVG Export Plug-In . SVG Version: 6.00 Build 0)  -->
<svg version="1.1" id="Layer_1" xmlns="http://www.w3.org/2000/svg" xmlns:xlink="http://www.w3.org/1999/xlink" x="0px" y="0px"
	 viewBox="0 0 62.7 73.6" style="enable-background:new 0 0 62.7 73.6;" xml:space="preserve">
<style type="text/css">
	.st0{fill:#F58023;}
	.st1{fill:none;}
</style>
<path class="st0" d="M46.2,53.8v16.5H3.3V8h13.2v3.3H33V8h13.2v6.6c0.6-0.1,1.3-0.1,1.9-0.1c0.5,0,0.9,0,1.4,0.1V4.7H0v68.8h49.5
	V53.9c-0.5,0-0.9,0.1-1.4,0.1C47.5,53.9,46.8,53.9,46.2,53.8"/>
<path class="st0" d="M19.8,21.1v-6.6H9.9v9.8h9.9V21.1z M16.5,21.1h-3.3v-3.3h3.3V21.1z"/>
<path class="st0" d="M19.8,40.8v-6.6H9.9v9.8h9.9V40.8z M16.5,40.8h-3.3v-3.3h3.3V40.8z"/>
<polygon class="st0" points="54.4,26.1 42.7,37.7 38,33.1 35.7,35.4 40.4,40 42.7,42.4 45,40 56.7,28.4 "/>
<path class="st0" d="M13.2,53.9H9.9v9.8h9.9v-9.8H13.2z M16.5,60.5h-3.3v-3.2h3.3V60.5z"/>
<path class="st0" d="M24.8,3.1c0.9,0,1.6,0.7,1.6,1.6h3.3C29.6,2,27.2-0.1,24.5,0c-2.6,0.1-4.6,2.2-4.7,4.7h3.3
	C23.1,3.8,23.9,3.1,24.8,3.1"/>
<path class="st0" d="M46.2,17.9c-9.1,0-16.3,7.4-16.3,16.5c0,9.1,7.4,16.3,16.5,16.3c9,0,16.3-7.4,16.3-16.4
	C62.6,25.2,55.3,17.8,46.2,17.9 M46.2,47.3c-7.2,0-13.1-6-13-13.2c0-7.2,6-13.1,13.2-13c7.2,0.1,13,5.9,13,13.1
	C59.4,41.5,53.5,47.4,46.2,47.3"/>
<rect y="0" class="st1" width="62.7" height="73.6"/>
</svg>
