<?xml version="1.0" encoding="utf-8"?>
<!-- Generator: Adobe Illustrator 22.0.1, SVG Export Plug-In . SVG Version: 6.00 Build 0)  -->
<svg version="1.1" id="Layer_1" xmlns="http://www.w3.org/2000/svg" xmlns:xlink="http://www.w3.org/1999/xlink" x="0px" y="0px"
	 viewBox="0 0 88 48" style="enable-background:new 0 0 88 48;" xml:space="preserve">
<style type="text/css">
	.st0{clip-path:url(#SVGID_2_);}
</style>
<g>
	<defs>
		<rect id="SVGID_1_" width="88" height="48"/>
	</defs>
	<clipPath id="SVGID_2_">
		<use xlink:href="#SVGID_1_"  style="overflow:visible;"/>
	</clipPath>
	<path class="st0" d="M88,1.8c-0.1-1.1-1.1-1.9-2.2-1.7c-0.5,0.1-0.9,0.3-1.2,0.6L44,43.1L3.5,0.7c-0.8-0.8-2-0.8-2.8-0.1
		c-0.8,0.8-0.8,2-0.1,2.8c0,0,0,0,0,0l42,44c0.8,0.8,2,0.8,2.8,0.1c0,0,0.1-0.1,0.1-0.1l42-44C87.9,3,88.1,2.4,88,1.8"/>
</g>
</svg>
