<?xml version="1.0" encoding="utf-8"?>
<!-- Generator: Adobe Illustrator 22.0.1, SVG Export Plug-In . SVG Version: 6.00 Build 0)  -->
<svg version="1.1" id="Layer_1" xmlns="http://www.w3.org/2000/svg" xmlns:xlink="http://www.w3.org/1999/xlink" x="0px" y="0px"
	 viewBox="0 0 100 80" style="enable-background:new 0 0 100 80;" xml:space="preserve">
<style type="text/css">
	.st0{fill:#F58023;}
	.st1{fill:none;}
</style>
<path class="st0" d="M10,9.1c-1.2,0.9-1.8,2.5-1,3.8c0.8,1.3,2.5,1.8,3.8,1c2.4-1.4,1.9-4.6,4.5-4.8C15.5,7.6,12.2,7.4,10,9.1
	 M12,5.6c0.1,1.5-0.7,2.9-2.2,3.2C8.2,9,6.8,8,6.5,6.5C6.1,3.8,8.9,2.1,7.3,0C9.5,0.4,11.8,2.8,12,5.6 M7.2,17.5
	c-1,1.2-1.2,2.8-0.1,3.9c1,1.1,2.8,1.2,3.9,0.1c2-1.9,0.8-5,3.3-5.7C12.2,14.9,9,15.4,7.2,17.5 M8.3,13.7c0.4,1.5-0.1,3-1.5,3.6
	c-1.4,0.6-3-0.1-3.6-1.5c-1.1-2.5,1.3-4.9-0.7-6.6C4.8,9.2,7.6,11,8.3,13.7 M5.8,26.3c-0.9,1.3-0.9,2.9,0.3,3.9
	c1.2,1,2.9,0.9,3.9-0.3c1.8-2.1,0.3-5,2.7-6C10.5,23.2,7.3,24.1,5.8,26.3 M6.5,22.4c0.6,1.4,0.3,3-1.1,3.7c-1.3,0.7-3,0.3-3.7-1.1
	c-1.3-2.4,0.7-5-1.4-6.4C2.5,18.3,5.4,19.8,6.5,22.4 M6.3,35.3c-0.7,1.3-0.6,3,0.7,3.8c1.3,0.9,3,0.6,3.8-0.7c1.6-2.3-0.3-5,2-6.3
	C10.7,31.6,7.6,32.8,6.3,35.3 M6.6,31.2c0.7,1.3,0.6,3-0.7,3.8c-1.2,0.9-3,0.6-3.8-0.7c-1.6-2.2,0.2-5-2.1-6.3
	C2.1,27.6,5.2,28.8,6.6,31.2 M8.6,43.9c-0.4,1.5,0.1,3,1.5,3.6c1.4,0.6,3-0.1,3.6-1.5c1-2.6-1.4-4.8,0.6-6.6
	C12,39.4,9.3,41.2,8.6,43.9 M8,39.9c1,1.1,1.2,2.8,0.2,3.9c-1,1.1-2.8,1.2-3.9,0.2c-2-1.8-0.9-4.9-3.4-5.6C2.9,37.4,6.1,37.8,8,39.9
	 M12.4,51.9c-0.1,1.5,0.8,2.9,2.3,3.1c1.5,0.2,2.9-0.8,3.1-2.3c0.4-2.7-2.4-4.4-0.9-6.5C14.7,46.7,12.5,49.2,12.4,51.9 M10.9,48.2
	c1.2,0.9,1.8,2.4,1.1,3.7c-0.7,1.3-2.4,1.8-3.7,1.1c-2.4-1.3-2-4.6-4.6-4.7C5.3,46.9,8.6,46.6,10.9,48.2 M17.6,59.1
	c0.3,1.5,1.5,2.6,3,2.5c1.5-0.2,2.6-1.5,2.5-3c-0.3-2.7-3.4-3.7-2.5-6.1C18.5,53.5,17,56.4,17.6,59.1 M15.2,55.8
	c1.4,0.5,2.4,1.9,2,3.4c-0.4,1.5-1.9,2.4-3.4,2c-2.7-0.7-3.1-4-5.6-3.4C9.5,56,12.6,54.9,15.2,55.8 M23.6,65.7
	c0.3,1.5,1.5,2.6,3,2.5c1.5-0.2,2.6-1.5,2.5-3c-0.3-2.7-3.4-3.7-2.5-6.1C24.6,60,23.1,63,23.6,65.7 M21.3,62.4
	c1.4,0.5,2.4,1.9,2,3.4c-0.4,1.5-1.9,2.4-3.4,2c-2.7-0.7-3.1-3.9-5.6-3.4C15.5,62.5,18.7,61.4,21.3,62.4 M31.3,70.3
	c0.7,1.3,2.2,2.1,3.6,1.6c1.4-0.6,2.1-2.2,1.6-3.6c-1-2.6-4.3-2.6-4.1-5.2C30.7,64.6,30,67.8,31.3,70.3 M28.1,67.8
	c1.5,0.1,2.8,1.2,2.8,2.7c0,1.5-1.2,2.8-2.7,2.8c-2.8,0.1-4.1-3-6.4-1.7C22.7,69.5,25.4,67.5,28.1,67.8 M39.5,73.7
	c1,1.1,2.6,1.5,3.9,0.6c1.2-0.9,1.5-2.6,0.5-3.9c-1.7-2.2-4.8-1.3-5.3-3.9C37.4,68.3,37.6,71.6,39.5,73.7 M35.8,72.1
	c1.5-0.3,3,0.4,3.4,1.8c0.4,1.5-0.4,3-1.8,3.4c-2.6,0.8-4.7-1.8-6.6,0C31,75.2,33.1,72.6,35.8,72.1 M44.4,74.6
	c1.5-0.3,3,0.4,3.4,1.8c0.4,1.5-0.4,3-1.8,3.4c-2.6,0.8-4.7-1.8-6.6,0C39.5,77.6,41.6,75.1,44.4,74.6 M82.8,9
	c2.6,0.2,2.1,3.4,4.5,4.8c1.3,0.8,3,0.3,3.8-1c0.8-1.3,0.2-2.9-1-3.8C87.8,7.4,84.5,7.6,82.8,9 M92.7,0c-1.5,2.1,1.3,3.8,0.8,6.5
	C93.2,8,91.8,9,90.3,8.8c-1.5-0.3-2.3-1.7-2.2-3.2C88.2,2.8,90.5,0.4,92.7,0 M85.8,15.9c2.5,0.7,1.3,3.8,3.3,5.7
	c1.1,1,2.9,1,3.9-0.1c1-1.1,0.8-2.7-0.1-3.9C91,15.4,87.8,14.9,85.8,15.9 M97.4,9.2c-2,1.7,0.4,4-0.7,6.6c-0.6,1.4-2.2,2.1-3.6,1.5
	c-1.4-0.6-1.9-2.1-1.5-3.6C92.4,11,95.2,9.2,97.4,9.2 M87.4,23.9c2.4,1,0.9,3.9,2.7,6c1,1.2,2.7,1.3,3.9,0.3c1.2-1,1.1-2.6,0.3-3.9
	C92.7,24.1,89.5,23.2,87.4,23.9 M99.7,18.6c-2.1,1.5-0.1,4-1.4,6.4c-0.7,1.3-2.4,1.8-3.7,1.1c-1.3-0.7-1.7-2.3-1.1-3.7
	C94.6,19.8,97.5,18.3,99.7,18.6 M87.2,32.1c2.3,1.3,0.4,4,2,6.3c0.9,1.3,2.6,1.6,3.8,0.7c1.3-0.9,1.4-2.5,0.7-3.8
	C92.4,32.8,89.3,31.6,87.2,32.1 M100,28.2c-2.3,1.2-0.5,4-2.1,6.3c-0.9,1.2-2.6,1.5-3.8,0.7c-1.2-0.9-1.4-2.5-0.7-3.8
	C94.8,28.8,97.9,27.6,100,28.2 M85.7,39.4c1.9,1.7-0.5,4,0.6,6.6c0.6,1.4,2.2,2.1,3.6,1.5c1.4-0.6,1.9-2.1,1.5-3.6
	C90.7,41.2,88,39.4,85.7,39.4 M99.1,38.4c-2.5,0.7-1.4,3.8-3.4,5.6c-1.1,1-2.9,0.9-3.9-0.2c-1-1.1-0.8-2.8,0.2-3.9
	C93.9,37.8,97.1,37.4,99.1,38.4 M83.1,46.3c1.5,2.1-1.3,3.8-0.9,6.5c0.2,1.5,1.6,2.5,3.1,2.3c1.5-0.2,2.4-1.6,2.3-3.1
	C87.5,49.2,85.3,46.7,83.1,46.3 M96.4,48.3c-2.6,0.1-2.2,3.4-4.6,4.7c-1.3,0.7-3,0.2-3.7-1.1c-0.7-1.3-0.2-2.9,1.1-3.7
	C91.4,46.6,94.7,46.9,96.4,48.3 M79.5,52.5c0.9,2.4-2.3,3.3-2.5,6.1c-0.2,1.5,1,2.9,2.5,3c1.5,0.2,2.7-1,3-2.5
	C83,56.4,81.5,53.5,79.5,52.5 M91.8,57.8c-2.5-0.5-3,2.7-5.6,3.4c-1.5,0.4-3-0.5-3.4-2c-0.4-1.5,0.6-2.8,2-3.4
	C87.4,54.9,90.5,56,91.8,57.8 M73.4,59c0.9,2.4-2.3,3.3-2.5,6.1c-0.2,1.5,1,2.9,2.5,3c1.5,0.2,2.7-1,3-2.5C76.9,63,75.4,60,73.4,59
	 M85.7,64.3c-2.5-0.5-3,2.7-5.6,3.4c-1.5,0.4-3-0.5-3.4-2c-0.4-1.5,0.6-2.8,2-3.4C81.3,61.4,84.5,62.5,85.7,64.3 M67.7,63.1
	c0.2,2.6-3.1,2.6-4.1,5.2c-0.6,1.4,0.1,3,1.6,3.6c1.4,0.6,2.9-0.2,3.6-1.6C70,67.8,69.3,64.6,67.7,63.1 M78.1,71.5
	c-2.3-1.2-3.6,1.8-6.4,1.7c-1.5,0-2.7-1.3-2.7-2.8c0-1.5,1.3-2.6,2.8-2.7C74.6,67.5,77.3,69.5,78.1,71.5 M61.4,66.5
	c-0.5,2.6-3.7,1.7-5.3,3.9c-0.9,1.2-0.7,2.9,0.5,3.9c1.2,0.9,2.8,0.6,3.9-0.6C62.4,71.6,62.6,68.3,61.4,66.5 M69.2,77.4
	c-1.9-1.8-4,0.8-6.6,0c-1.5-0.4-2.3-2-1.8-3.4c0.4-1.5,1.9-2.1,3.4-1.8C66.9,72.6,69,75.2,69.2,77.4 M60.6,79.8
	c-1.9-1.8-4,0.8-6.6,0c-1.5-0.4-2.3-2-1.8-3.4c0.4-1.5,1.9-2.1,3.4-1.8C58.4,75.1,60.5,77.6,60.6,79.8"/>
<rect y="0" class="st1" width="100" height="80"/>
</svg>
